# xmcd CD database file
#
# Track frame offsets:
#	150
#	22872
#	35832
#	54072
#	80237
#	102532
#	126657
#	147332
#	170115
#	190230
#
# Disc length: 2695 seconds
#
# Revision: 1
# Processed by: cddbd v1.5.1PL0 Copyright (c) Steve Scherf et al.
# Submitted via: CDex 1.51
#
DISCID=920a850a
DTITLE=STRYPER - Soldiers Under Command
DYEAR=1985
DGENRE=Metal
TTITLE0=Soldiers Under Command
TTITLE1=Makes Me Wanna Sing
TTITLE2=Together Forever
TTITLE3=First Love
TTITLE4=The Rock That Makes Me Roll
TTITLE5=Reach Out
TTITLE6=(Waiting For) A Love That's Real
TTITLE7=Together As One
TTITLE8=Surrender
TTITLE9=Battle Hymn Of The Republic
EXTD=YEAR: 1985
EXTT0=
EXTT1=
EXTT2=
EXTT3=
EXTT4=
EXTT5=
EXTT6=
EXTT7=
EXTT8=
EXTT9=
PLAYORDER=
